<svg xmlns="http://www.w3.org/2000/svg" viewBox="0 0 100 100">
  <defs>
    <linearGradient id="grad1" x1="0%" y1="0%" x2="100%" y2="100%">
      <stop offset="0%" style="stop-color:#3B82F6;stop-opacity:1" />
      <stop offset="100%" style="stop-color:#6366F1;stop-opacity:1" />
    </linearGradient>
  </defs>
  
  <!-- Background -->
  <rect width="100" height="100" rx="20" fill="url(#grad1)"/>
  
  <!-- Keyboard outline -->
  <rect x="15" y="30" width="70" height="45" rx="4" fill="white" opacity="0.9"/>
  
  <!-- Keyboard keys -->
  <!-- Row 1 -->
  <rect x="20" y="35" width="8" height="8" rx="1.5" fill="#3B82F6"/>
  <rect x="30" y="35" width="8" height="8" rx="1.5" fill="#3B82F6"/>
  <rect x="40" y="35" width="8" height="8" rx="1.5" fill="#3B82F6"/>
  <rect x="50" y="35" width="8" height="8" rx="1.5" fill="#3B82F6"/>
  <rect x="60" y="35" width="8" height="8" rx="1.5" fill="#3B82F6"/>
  <rect x="70" y="35" width="8" height="8" rx="1.5" fill="#3B82F6"/>
  
  <!-- Row 2 -->
  <rect x="20" y="46" width="8" height="8" rx="1.5" fill="#6366F1"/>
  <rect x="30" y="46" width="8" height="8" rx="1.5" fill="#6366F1"/>
  <rect x="40" y="46" width="8" height="8" rx="1.5" fill="#6366F1"/>
  <rect x="50" y="46" width="8" height="8" rx="1.5" fill="#6366F1"/>
  <rect x="60" y="46" width="8" height="8" rx="1.5" fill="#6366F1"/>
  <rect x="70" y="46" width="8" height="8" rx="1.5" fill="#6366F1"/>
  
  <!-- Row 3 -->
  <rect x="20" y="57" width="8" height="8" rx="1.5" fill="#8B5CF6"/>
  <rect x="30" y="57" width="8" height="8" rx="1.5" fill="#8B5CF6"/>
  <rect x="40" y="57" width="18" height="8" rx="1.5" fill="#8B5CF6"/>
  <rect x="60" y="57" width="8" height="8" rx="1.5" fill="#8B5CF6"/>
  <rect x="70" y="57" width="8" height="8" rx="1.5" fill="#8B5CF6"/>
  
  <!-- Sparkle effect -->
  <circle cx="82" cy="25" r="3" fill="#FCD34D" opacity="0.9"/>
  <circle cx="88" cy="30" r="2" fill="#FCD34D" opacity="0.7"/>
  <circle cx="78" cy="32" r="2" fill="#FCD34D" opacity="0.8"/>
</svg>
